<svg width="42" height="36" viewBox="0 0 42 36" fill="none" xmlns="http://www.w3.org/2000/svg">
<path d="M21.8572 0.295953C21.6087 0.104166 21.3025 0 20.9873 0C20.6721 0 20.3659 0.104166 20.1174 0.295953L0 15.8114L1.73978 17.9876L4.2 16.0904V33.2308C4.20152 33.9647 4.497 34.6682 5.02178 35.1873C5.54655 35.7063 6.25786 35.9985 7 36H35C35.7422 35.9986 36.4536 35.7065 36.9784 35.1874C37.5032 34.6684 37.7986 33.9648 37.8 33.2308V16.103L40.2602 18L42 15.8236L21.8572 0.295953ZM23.8 33.2308H18.2V22.1538H23.8V33.2308ZM26.6 33.2308V22.1538C26.5991 21.4196 26.3039 20.7158 25.779 20.1966C25.254 19.6775 24.5423 19.3854 23.8 19.3846H18.2C17.4576 19.3853 16.7459 19.6773 16.2209 20.1965C15.696 20.7157 15.4007 21.4196 15.4 22.1538V33.2308H7V13.9313L21 3.14508L35 13.9458V33.2308H26.6Z" fill="#FFB1CE"/>
</svg>
