<svg width="51" height="44" viewBox="0 0 51 44" fill="none" xmlns="http://www.w3.org/2000/svg">
<path d="M26.5001 1.34528C26.2102 1.12153 25.853 1 25.4852 1C25.1175 1 24.7603 1.12153 24.4703 1.34528L1 19.4467L3.02974 21.9856L5.9 19.7722V39.7692C5.90177 40.6255 6.2465 41.4463 6.85874 42.0518C7.47097 42.6573 8.30084 42.9983 9.16667 43H41.8333C42.6992 42.9984 43.5292 42.6575 44.1414 42.052C44.7537 41.4464 45.0984 40.6256 45.1 39.7692V19.7869L47.9703 22L50 19.4609L26.5001 1.34528ZM28.7667 39.7692H22.2333V26.8461H28.7667V39.7692ZM32.0333 39.7692V26.8461C32.0323 25.9896 31.6879 25.1684 31.0755 24.5627C30.463 23.957 29.6327 23.6163 28.7667 23.6153H22.2333C21.3672 23.6162 20.5368 23.9569 19.9244 24.5626C19.312 25.1683 18.9675 25.9895 18.9667 26.8461V39.7692H9.16667V17.2531L25.5 4.66926L41.8333 17.2701V39.7692H32.0333Z" fill="#FFB1CE" stroke="#E1007A"/>
</svg>
