<svg width="49" height="42" viewBox="0 0 49 42" fill="none" xmlns="http://www.w3.org/2000/svg">
<path d="M25.5001 0.345279C25.2102 0.121527 24.853 0 24.4852 0C24.1175 0 23.7603 0.121527 23.4703 0.345279L0 18.4467L2.02974 20.9856L4.9 18.7722V38.7692C4.90177 39.6255 5.2465 40.4463 5.85874 41.0518C6.47097 41.6573 7.30084 41.9983 8.16667 42H40.8333C41.6992 41.9984 42.5292 41.6575 43.1414 41.052C43.7537 40.4464 44.0984 39.6256 44.1 38.7692V18.7869L46.9703 21L49 18.4609L25.5001 0.345279ZM27.7667 38.7692H21.2333V25.8461H27.7667V38.7692ZM31.0333 38.7692V25.8461C31.0323 24.9896 30.6879 24.1684 30.0755 23.5627C29.463 22.957 28.6327 22.6163 27.7667 22.6153H21.2333C20.3672 22.6162 19.5368 22.9569 18.9244 23.5626C18.312 24.1683 17.9675 24.9895 17.9667 25.8461V38.7692H8.16667V16.2531L24.5 3.66926L40.8333 16.2701V38.7692H31.0333Z" fill="#FFB1CE"/>
</svg>
