<svg width="40" height="41" viewBox="0 0 40 41" fill="none" xmlns="http://www.w3.org/2000/svg">
<path d="M15 20.5V33.1154L26.6667 26.8077L15 20.5Z" fill="#FFB1CE"/>
<path d="M36.6667 41H3.33333C2.44956 40.9991 1.60225 40.6666 0.977334 40.0753C0.352414 39.484 0.000926501 38.6823 0 37.8462V15.7692C0.000926501 14.933 0.352414 14.1314 0.977334 13.5401C1.60225 12.9488 2.44956 12.6163 3.33333 12.6154H36.6667C37.5504 12.6163 38.3977 12.9488 39.0227 13.5401C39.6476 14.1314 39.9991 14.933 40 15.7692V37.8462C39.9991 38.6823 39.6476 39.484 39.0227 40.0753C38.3977 40.6666 37.5504 40.9991 36.6667 41ZM3.33333 15.7692V37.8462H36.6667V15.7692H3.33333Z" fill="#FFB1CE"/>
<path d="M36.6667 6.30769H3.33333V9.46154H36.6667V6.30769Z" fill="#FFB1CE"/>
<path d="M33.3333 0H6.66667V3.15385H33.3333V0Z" fill="#FFB1CE"/>
</svg>
