<svg width="42" height="43" viewBox="0 0 42 43" fill="none" xmlns="http://www.w3.org/2000/svg">
<path d="M16 21.5V34.1154L27.6667 27.8077L16 21.5Z" fill="#FFB1CE"/>
<path d="M37.6667 42H4.33333C3.44956 41.9991 2.60225 41.6666 1.97733 41.0753C1.35241 40.484 1.00093 39.6823 1 38.8462V16.7692C1.00093 15.933 1.35241 15.1314 1.97733 14.5401C2.60225 13.9488 3.44956 13.6163 4.33333 13.6154H37.6667C38.5504 13.6163 39.3977 13.9488 40.0227 14.5401C40.6476 15.1314 40.9991 15.933 41 16.7692V38.8462C40.9991 39.6823 40.6476 40.484 40.0227 41.0753C39.3977 41.6666 38.5504 41.9991 37.6667 42ZM4.33333 16.7692V38.8462H37.6667V16.7692H4.33333Z" fill="#FFB1CE"/>
<path d="M37.6667 7.30769H4.33333V10.4615H37.6667V7.30769Z" fill="#FFB1CE"/>
<path d="M34.3333 1H7.66667V4.15385H34.3333V1Z" fill="#FFB1CE"/>
<path d="M16 21.5V34.1154L27.6667 27.8077L16 21.5Z" stroke="#E1007A"/>
<path d="M37.6667 42H4.33333C3.44956 41.9991 2.60225 41.6666 1.97733 41.0753C1.35241 40.484 1.00093 39.6823 1 38.8462V16.7692C1.00093 15.933 1.35241 15.1314 1.97733 14.5401C2.60225 13.9488 3.44956 13.6163 4.33333 13.6154H37.6667C38.5504 13.6163 39.3977 13.9488 40.0227 14.5401C40.6476 15.1314 40.9991 15.933 41 16.7692V38.8462C40.9991 39.6823 40.6476 40.484 40.0227 41.0753C39.3977 41.6666 38.5504 41.9991 37.6667 42ZM4.33333 16.7692V38.8462H37.6667V16.7692H4.33333Z" stroke="#E1007A"/>
<path d="M37.6667 7.30769H4.33333V10.4615H37.6667V7.30769Z" stroke="#E1007A"/>
<path d="M34.3333 1H7.66667V4.15385H34.3333V1Z" stroke="#E1007A"/>
</svg>
