<svg width="44" height="44" viewBox="0 0 44 44" fill="none" xmlns="http://www.w3.org/2000/svg">
<path d="M38.9868 23.1432C38.9868 22.7672 38.9868 22.3911 38.9868 22C38.9868 21.6089 38.9868 21.2328 38.9868 20.8417L41.9532 18.3146C42.5 17.8453 42.8588 17.203 42.9662 16.501C43.0737 15.7991 42.9228 15.0828 42.5403 14.4787L38.8941 8.46167C38.6232 8.00478 38.2336 7.62528 37.7645 7.36125C37.2953 7.09723 36.7631 6.95796 36.2213 6.95742C35.8855 6.95491 35.5515 7.00572 35.2325 7.10784L31.4782 8.34133C30.83 7.92196 30.1539 7.54506 29.4542 7.21314L28.6663 3.42241C28.525 2.72986 28.1381 2.10775 27.5732 1.66499C27.0083 1.22223 26.3014 0.987024 25.5763 1.00055H18.3458C17.6207 0.987024 16.9139 1.22223 16.349 1.66499C15.7841 2.10775 15.3971 2.72986 15.2558 3.42241L14.4679 7.21314C13.7633 7.54498 13.082 7.92187 12.4285 8.34133L8.75145 7.04767C8.429 6.96588 8.0951 6.9354 7.76266 6.95742C7.22079 6.95796 6.6886 7.09723 6.21947 7.36125C5.75034 7.62528 5.36076 8.00478 5.08983 8.46167L1.44367 14.4787C1.08305 15.0819 0.949044 15.7884 1.0646 16.4772C1.18017 17.166 1.5381 17.7943 2.07711 18.2544L4.99713 20.8568C4.99713 21.2328 4.99713 21.6089 4.99713 22C4.99713 22.3911 4.99713 22.7672 4.99713 23.1583L2.07711 25.6854C1.52288 26.1487 1.15515 26.7882 1.03919 27.4905C0.923227 28.1927 1.06653 28.9122 1.44367 29.5213L5.08983 35.5383C5.36076 35.9952 5.75034 36.3747 6.21947 36.6387C6.6886 36.9028 7.22079 37.042 7.76266 37.0426C8.09846 37.0451 8.43244 36.9943 8.75145 36.8922L12.5058 35.6587C13.1539 36.078 13.8301 36.4549 14.5297 36.7869L15.3176 40.5776C15.4589 41.2701 15.8459 41.8923 16.4108 42.335C16.9757 42.7778 17.6825 43.013 18.4076 42.9994H25.6999C26.425 43.013 27.1319 42.7778 27.6968 42.335C28.2617 41.8923 28.6486 41.2701 28.7899 40.5776L29.5778 36.7869C30.2825 36.455 30.9637 36.0781 31.6172 35.6587L35.3561 36.8922C35.6751 36.9943 36.0091 37.0451 36.3449 37.0426C36.8867 37.042 37.4189 36.9028 37.8881 36.6387C38.3572 36.3747 38.7468 35.9952 39.0177 35.5383L42.5403 29.5213C42.9009 28.9181 43.0349 28.2116 42.9193 27.5228C42.8038 26.834 42.4458 26.2057 41.9068 25.7456L38.9868 23.1432ZM36.2213 34.0341L30.922 32.2891C29.6815 33.3122 28.2637 34.1119 26.7351 34.6508L25.6381 40.0511H18.3458L17.2489 34.711C15.7323 34.1568 14.3222 33.3584 13.0774 32.3493L7.76266 34.0341L4.11649 28.017L8.31885 24.4068C8.03318 22.8497 8.03318 21.2556 8.31885 19.6985L4.11649 15.983L7.76266 9.96593L13.062 11.7109C14.3025 10.6878 15.7203 9.88809 17.2489 9.34919L18.3458 3.9489H25.6381L26.7351 9.28902C28.2516 9.84322 29.6617 10.6416 30.9065 11.6507L36.2213 9.96593L39.8674 15.983L35.6651 19.5932C35.9508 21.1503 35.9508 22.7444 35.6651 24.3015L39.8674 28.017L36.2213 34.0341Z" fill="#FFB1CE"/>
<path d="M21.992 31.0256C20.1586 31.0256 18.3663 30.4962 16.8419 29.5045C15.3175 28.5127 14.1293 27.1031 13.4277 25.4539C12.7261 23.8047 12.5425 21.99 12.9002 20.2392C13.2579 18.4884 14.1407 16.8802 15.4372 15.618C16.7336 14.3557 18.3853 13.4961 20.1835 13.1479C21.9817 12.7996 23.8456 12.9784 25.5394 13.6615C27.2333 14.3446 28.681 15.5014 29.6996 16.9857C30.7182 18.4699 31.2619 20.2149 31.2619 22C31.2743 23.1886 31.043 24.3677 30.5815 25.4682C30.12 26.5686 29.4377 27.5684 28.5744 28.4089C27.7111 29.2494 26.6843 29.9138 25.554 30.3631C24.4237 30.8124 23.2128 31.0376 21.992 31.0256ZM21.992 15.983C21.1752 15.9644 20.3631 16.1074 19.6047 16.4032C18.8463 16.6991 18.1574 17.1416 17.5797 17.7041C17.002 18.2665 16.5475 18.9373 16.2437 19.6756C15.9398 20.414 15.793 21.2048 15.812 22C15.793 22.7952 15.9398 23.586 16.2437 24.3244C16.5475 25.0627 17.002 25.7335 17.5797 26.2959C18.1574 26.8584 18.8463 27.3009 19.6047 27.5968C20.3631 27.8926 21.1752 28.0356 21.992 28.017C22.8087 28.0356 23.6209 27.8926 24.3793 27.5968C25.1376 27.3009 25.8265 26.8584 26.4042 26.2959C26.9819 25.7335 27.4364 25.0627 27.7403 24.3244C28.0441 23.586 28.1909 22.7952 28.1719 22C28.1909 21.2048 28.0441 20.414 27.7403 19.6756C27.4364 18.9373 26.9819 18.2665 26.4042 17.7041C25.8265 17.1416 25.1376 16.6991 24.3793 16.4032C23.6209 16.1074 22.8087 15.9644 21.992 15.983Z" fill="#FFB1CE"/>
<path d="M38.9868 23.1432C38.9868 22.7672 38.9868 22.3911 38.9868 22C38.9868 21.6089 38.9868 21.2328 38.9868 20.8417L41.9532 18.3146C42.5 17.8453 42.8588 17.203 42.9662 16.501C43.0737 15.7991 42.9228 15.0828 42.5403 14.4787L38.8941 8.46167C38.6232 8.00478 38.2336 7.62528 37.7645 7.36125C37.2953 7.09723 36.7631 6.95796 36.2213 6.95742C35.8855 6.95491 35.5515 7.00572 35.2325 7.10784L31.4782 8.34133C30.83 7.92196 30.1539 7.54506 29.4542 7.21314L28.6663 3.42241C28.525 2.72986 28.1381 2.10775 27.5732 1.66499C27.0083 1.22223 26.3014 0.987024 25.5763 1.00055H18.3458C17.6207 0.987024 16.9139 1.22223 16.349 1.66499C15.7841 2.10775 15.3971 2.72986 15.2558 3.42241L14.4679 7.21314C13.7633 7.54498 13.082 7.92187 12.4285 8.34133L8.75145 7.04767C8.429 6.96588 8.0951 6.9354 7.76266 6.95742C7.22079 6.95796 6.6886 7.09723 6.21947 7.36125C5.75034 7.62528 5.36076 8.00478 5.08983 8.46167L1.44367 14.4787C1.08305 15.0819 0.949044 15.7884 1.0646 16.4772C1.18017 17.166 1.5381 17.7943 2.07711 18.2544L4.99713 20.8568C4.99713 21.2328 4.99713 21.6089 4.99713 22C4.99713 22.3911 4.99713 22.7672 4.99713 23.1583L2.07711 25.6854C1.52288 26.1487 1.15515 26.7882 1.03919 27.4905C0.923227 28.1927 1.06653 28.9122 1.44367 29.5213L5.08983 35.5383C5.36076 35.9952 5.75034 36.3747 6.21947 36.6387C6.6886 36.9028 7.22079 37.042 7.76266 37.0426C8.09846 37.0451 8.43244 36.9943 8.75145 36.8922L12.5058 35.6587C13.1539 36.078 13.8301 36.4549 14.5297 36.7869L15.3176 40.5776C15.4589 41.2701 15.8459 41.8923 16.4108 42.335C16.9757 42.7778 17.6825 43.013 18.4076 42.9994H25.6999C26.425 43.013 27.1319 42.7778 27.6968 42.335C28.2617 41.8923 28.6486 41.2701 28.7899 40.5776L29.5778 36.7869C30.2825 36.455 30.9637 36.0781 31.6172 35.6587L35.3561 36.8922C35.6751 36.9943 36.0091 37.0451 36.3449 37.0426C36.8867 37.042 37.4189 36.9028 37.8881 36.6387C38.3572 36.3747 38.7468 35.9952 39.0177 35.5383L42.5403 29.5213C42.9009 28.9181 43.0349 28.2116 42.9193 27.5228C42.8038 26.834 42.4458 26.2057 41.9068 25.7456L38.9868 23.1432ZM36.2213 34.0341L30.922 32.2891C29.6815 33.3122 28.2637 34.1119 26.7351 34.6508L25.6381 40.0511H18.3458L17.2489 34.711C15.7323 34.1568 14.3222 33.3584 13.0774 32.3493L7.76266 34.0341L4.11649 28.017L8.31885 24.4068C8.03318 22.8497 8.03318 21.2556 8.31885 19.6985L4.11649 15.983L7.76266 9.96593L13.062 11.7109C14.3025 10.6878 15.7203 9.88809 17.2489 9.34919L18.3458 3.9489H25.6381L26.7351 9.28902C28.2516 9.84322 29.6617 10.6416 30.9065 11.6507L36.2213 9.96593L39.8674 15.983L35.6651 19.5932C35.9508 21.1503 35.9508 22.7444 35.6651 24.3015L39.8674 28.017L36.2213 34.0341Z" stroke="#E1007A"/>
<path d="M21.992 31.0256C20.1586 31.0256 18.3663 30.4962 16.8419 29.5045C15.3175 28.5127 14.1293 27.1031 13.4277 25.4539C12.7261 23.8047 12.5425 21.99 12.9002 20.2392C13.2579 18.4884 14.1407 16.8802 15.4372 15.618C16.7336 14.3557 18.3853 13.4961 20.1835 13.1479C21.9817 12.7996 23.8456 12.9784 25.5394 13.6615C27.2333 14.3446 28.681 15.5014 29.6996 16.9857C30.7182 18.4699 31.2619 20.2149 31.2619 22C31.2743 23.1886 31.043 24.3677 30.5815 25.4682C30.12 26.5686 29.4377 27.5684 28.5744 28.4089C27.7111 29.2494 26.6843 29.9138 25.554 30.3631C24.4237 30.8124 23.2128 31.0376 21.992 31.0256ZM21.992 15.983C21.1752 15.9644 20.3631 16.1074 19.6047 16.4032C18.8463 16.6991 18.1574 17.1416 17.5797 17.7041C17.002 18.2665 16.5475 18.9373 16.2437 19.6756C15.9398 20.414 15.793 21.2048 15.812 22C15.793 22.7952 15.9398 23.586 16.2437 24.3244C16.5475 25.0627 17.002 25.7335 17.5797 26.2959C18.1574 26.8584 18.8463 27.3009 19.6047 27.5968C20.3631 27.8926 21.1752 28.0356 21.992 28.017C22.8087 28.0356 23.6209 27.8926 24.3793 27.5968C25.1376 27.3009 25.8265 26.8584 26.4042 26.2959C26.9819 25.7335 27.4364 25.0627 27.7403 24.3244C28.0441 23.586 28.1909 22.7952 28.1719 22C28.1909 21.2048 28.0441 20.414 27.7403 19.6756C27.4364 18.9373 26.9819 18.2665 26.4042 17.7041C25.8265 17.1416 25.1376 16.6991 24.3793 16.4032C23.6209 16.1074 22.8087 15.9644 21.992 15.983Z" stroke="#E1007A"/>
</svg>
