<svg width="110" height="28" viewBox="0 0 110 28" fill="none" xmlns="http://www.w3.org/2000/svg">
<path d="M19.5281 27H15.0881V15.24H5.32813V27H0.888125V0.319998H5.32813V11.32H15.0881V0.319998H19.5281V27ZM38.3591 27H34.3991V25.04C33.2257 26.6667 31.5324 27.48 29.3191 27.48C27.6657 27.48 26.2657 26.9067 25.1191 25.76C23.9724 24.5867 23.3991 23.0133 23.3991 21.04C23.3991 19.0667 23.9724 17.5333 25.1191 16.44C26.2657 15.32 27.6657 14.76 29.3191 14.76C31.5857 14.76 33.2791 15.5333 34.3991 17.08V14.28C34.3991 13.1067 34.0657 12.2 33.3991 11.56C32.7591 10.92 31.8391 10.6 30.6391 10.6C28.8791 10.6 27.2791 11.3333 25.8391 12.8L24.2791 10C26.1457 8.13333 28.5057 7.2 31.3591 7.2C33.4924 7.2 35.1857 7.74667 36.4391 8.84C37.7191 9.90667 38.3591 11.56 38.3591 13.8V27ZM30.7591 24.72C32.3591 24.72 33.5724 24.0133 34.3991 22.6V19.68C34.0257 19.0133 33.5057 18.4933 32.8391 18.12C32.1724 17.72 31.4791 17.52 30.7591 17.52C29.7457 17.52 28.9324 17.8533 28.3191 18.52C27.7057 19.1867 27.3991 20.0533 27.3991 21.12C27.3991 22.1867 27.7057 23.0533 28.3191 23.72C28.9324 24.3867 29.7457 24.72 30.7591 24.72ZM42.5109 7.68H46.4709V13.36C46.4709 14.4533 46.7376 15.24 47.2709 15.72C47.8043 16.1733 48.6843 16.4 49.9109 16.4C51.1909 16.4 52.2843 16.1867 53.1909 15.76V7.68H57.1509V27H53.1909V18.88C51.9909 19.5733 50.4843 19.92 48.6709 19.92C46.4309 19.92 44.8443 19.4933 43.9109 18.64C42.9776 17.7867 42.5109 16.48 42.5109 14.72V7.68ZM75.82 27H71.86V25.04C70.6867 26.6667 68.9933 27.48 66.78 27.48C65.1267 27.48 63.7267 26.9067 62.58 25.76C61.4333 24.5867 60.86 23.0133 60.86 21.04C60.86 19.0667 61.4333 17.5333 62.58 16.44C63.7267 15.32 65.1267 14.76 66.78 14.76C69.0467 14.76 70.74 15.5333 71.86 17.08V14.28C71.86 13.1067 71.5267 12.2 70.86 11.56C70.22 10.92 69.3 10.6 68.1 10.6C66.34 10.6 64.74 11.3333 63.3 12.8L61.74 10C63.6067 8.13333 65.9667 7.2 68.82 7.2C70.9533 7.2 72.6467 7.74667 73.9 8.84C75.18 9.90667 75.82 11.56 75.82 13.8V27ZM68.22 24.72C69.82 24.72 71.0333 24.0133 71.86 22.6V19.68C71.4867 19.0133 70.9667 18.4933 70.3 18.12C69.6333 17.72 68.94 17.52 68.22 17.52C67.2067 17.52 66.3933 17.8533 65.78 18.52C65.1667 19.1867 64.86 20.0533 64.86 21.12C64.86 22.1867 65.1667 23.0533 65.78 23.72C66.3933 24.3867 67.2067 24.72 68.22 24.72ZM87.2519 27H83.2519V11.16H78.8919V7.68H91.6119V11.16H87.2519V27ZM94.6725 7.68H98.6725V14.76H102.953C105.059 14.76 106.659 15.3467 107.753 16.52C108.873 17.6933 109.433 19.16 109.433 20.92C109.433 22.6533 108.859 24.1067 107.713 25.28C106.593 26.4267 105.006 27 102.953 27H94.6725V7.68ZM102.473 18.12H98.6725V23.64H102.473C103.379 23.64 104.086 23.3867 104.593 22.88C105.099 22.3733 105.353 21.7067 105.353 20.88C105.353 20.08 105.099 19.4267 104.593 18.92C104.086 18.3867 103.379 18.12 102.473 18.12Z" fill="#FFCBDE"/>
</svg>
